#!OML:ASF I:\Actors\actors\Patient Classification 2\Patient 1\Session 1\actor1.ASF
:FULLY-SPECIFIED
:DEGREES
879
root -1.13641 18.108 5.96635 -0.62407 -3.38944 -5.02327
lowerback 2.04539 1.79027 2.8098
upperback -0.60467 2.47153 0.464508
thorax -1.66823 1.20736 -1.17991
lowerneck -11.734 -2.48911 1.98036
upperneck 22.8121 -4.58625 2.75475
head 9.12053 -1.68436 0.0910385
rclavicle 1.49213e-014 2.78299e-015
rhumerus -50.7058 -5.29571 -85.3583
rradius 45.3023
rwrist 11.031
rhand -1.02398 -31.2568
rfingers 7.12502
rthumb 24.6092 300.305
lclavicle 1.49213e-014 2.78299e-015
lhumerus -41.5017 5.37296 87.6587
lradius 37.012
lwrist -10.266
lhand -8.52352 -27.1791
lfingers 7.12502
lthumb 17.405 2.06169
rfemur 10.6662 0.0316164 21.3148
rtibia -2.70347e-014
rfoot -17.7832 -8.61671
rtoes 7.06827
lfemur 19.9158 -8.76367 -12.604
ltibia -18.6584
lfoot -5.74315 20.5336
ltoes -7.64919
880
root -1.13377 18.1074 5.96539 -0.633112 -3.42327 -5.02443
lowerback 2.07471 1.79179 2.81156
upperback -0.606621 2.47473 0.467667
thorax -1.68663 1.20867 -1.17886
lowerneck -11.7557 -2.4887 2.02892
upperneck 22.8478 -4.58653 2.70373
head 9.13452 -1.68472 0.065031
rclavicle 2.64321e-014 -7.95139e-015
rhumerus -50.6942 -5.2171 -85.3833
rradius 45.2757
rwrist 11.0153
rhand -1.06449 -31.223
rfingers 7.12502
rthumb 24.5704 300.334
lclavicle 2.64321e-014 -7.95139e-015
lhumerus -42.003 5.2886 87.6543
lradius 38.0162
lwrist -10.2404
lhand -8.33738 -26.8147
lfingers 7.12502
lthumb 17.5842 2.41014
rfemur 10.6624 0.0670141 21.3089
rtibia -7.95139e-015
rfoot -17.7666 -8.63793
rtoes 7.02311
lfemur 19.9316 -8.79239 -12.6276
ltibia -18.6583
lfoot -5.7483 20.5999
ltoes -7.82071
881
root -1.13093 18.1076 5.96469 -0.630869 -3.45956 -5.04442
lowerback 2.09643 1.79929 2.83569
upperback -0.612661 2.48635 0.470881
thorax -1.70369 1.21393 -1.1903
lowerneck -11.7351 -2.48896 2.02422
upperneck 22.8448 -4.5927 2.73542
head 9.13069 -1.68495 0.0762252
rclavicle 1.83876e-015 -6.75868e-015
rhumerus -50.6864 -5.17103 -85.3923
rradius 45.2491
rwrist 11.0066
rhand -1.05917 -31.2067
rfingers 7.12502
rthumb 24.5755 300.351
lclavicle 1.83876e-015 -6.75868e-015
lhumerus -42.9356 4.41304 87.9841
lradius 40.3309
lwrist -9.3689
lhand -7.87849 -25.4985
lfingers 7.12502
lthumb 18.0258 3.68618
rfemur 10.6507 0.104471 21.3234
rtibia -2.54444e-014
rfoot -17.737 -8.6608
rtoes 7.04539
lfemur 19.9279 -8.79721 -12.6256
ltibia -18.6415
lfoot -5.75576 20.6469
ltoes -7.81835
882
root -1.12821 18.1086 5.96463 -0.621848 -3.46293 -5.03724
lowerback 2.09043 1.80521 2.82311
upperback -0.606586 2.49349 0.467399
thorax -1.69416 1.2178 -1.18672
lowerneck -11.7311 -2.49415 1.96858
upperneck 22.8356 -4.61106 2.8335
head 9.13098 -1.68798 0.116916
rclavicle -1.84124e-014 7.15625e-015
rhumerus -50.6482 -5.21528 -85.365
rradius 45.2208
rwrist 11.064
rhand -1.97158 -30.8198
rfingers 7.12502
rthumb 23.7007 300.621
lclavicle -1.84124e-014 7.15625e-015
lhumerus -42.9267 4.47154 87.9169
lradius 40.2786
lwrist -9.40638
lhand -7.91948 -25.5416
lfingers 7.12502
lthumb 17.9863 3.64676
rfemur 10.6427 0.109902 21.3093
rtibia 3.18055e-014
rfoot -17.7087 -8.67777
rtoes 7.00103
lfemur 19.8998 -8.80543 -12.6459
ltibia -18.6133
lfoot -5.73044 20.6579
ltoes -7.88049
883
root -1.12492 18.1094 5.96412 -0.625395 -3.44994 -5.00187
lowerback 2.06543 1.80491 2.79079
upperback -0.572907 2.49051 0.460693
thorax -1.64671 1.2176 -1.17383
lowerneck -11.7676 -2.50408 1.9164
upperneck 22.8242 -4.6335 2.91227
head 9.13747 -1.69422 0.149397
rclavicle 2.28789e-014 -1.03368e-014
rhumerus -50.579 -5.25125 -85.3419
rradius 45.2081
rwrist 11.1088
rhand -3.8649 -29.9881
rfingers 7.12502
rthumb 21.8837 301.229
lclavicle 2.28789e-014 -1.03368e-014
lhumerus -42.8437 4.48601 87.8891
lradius 40.1856
lwrist -9.39006
lhand -8.05321 -25.6852
lfingers 7.12502
lthumb 17.8576 3.51492
rfemur 10.6422 0.100649 21.2604
rtibia -1.43125e-014
rfoot -17.694 -8.7103
rtoes 6.79019
lfemur 19.8802 -8.87293 -12.7077
ltibia -18.5826
lfoot -5.75167 20.6803
ltoes -7.82353
884
root -1.12104 18.1093 5.96364 -0.627752 -3.45201 -4.98155
lowerback 2.04731 1.80287 2.79261
upperback -0.549513 2.48663 0.456535
thorax -1.61242 1.21632 -1.17782
lowerneck -11.7808 -2.52717 1.90385
upperneck 22.8186 -4.66734 2.92827
head 9.13898 -1.7094 0.152939
rclavicle -2.76124e-014 -2.38542e-015
rhumerus -50.531 -5.25353 -85.3244
rradius 45.19
rwrist 11.1226
rhand -4.85576 -29.4835
rfingers 7.12502
rthumb 20.932 301.626
lclavicle -2.76124e-014 -2.38542e-015
lhumerus -42.7837 4.46353 87.8827
lradius 40.11
lwrist -9.37679
lhand -8.29755 -25.7873
lfingers 7.12502
lthumb 17.6225 3.43403
rfemur 10.6366 0.107231 21.2228
rtibia -1.59028e-015
rfoot -17.6789 -8.74277
rtoes 6.73023
lfemur 19.8667 -8.91548 -12.7572
ltibia -18.55
lfoot -5.78999 20.6959
ltoes -7.77852
885
root -1.11848 18.1097 5.96368 -0.609233 -3.46068 -4.98992
lowerback 2.03512 1.80316 2.80587
upperback -0.559679 2.48719 0.458968
thorax -1.61555 1.21635 -1.18252
lowerneck -11.7776 -2.55835 1.82776
upperneck 22.8649 -4.71573 3.00568
head 9.15878 -1.72913 0.186343
rclavicle -3.06936e-014 8.74653e-015
rhumerus -50.5159 -5.22209 -85.3251
rradius 45.1491
rwrist 11.0946
rhand -5.0382 -29.3646
rfingers 7.12502
rthumb 20.7567 301.726
lclavicle -3.06936e-014 8.74653e-015
lhumerus -42.7717 4.51365 87.8151
lradius 40.0533
lwrist -9.49397
lhand -8.47868 -25.8883
lfingers 7.12502
lthumb 17.4482 3.34858
rfemur 10.6175 0.117896 21.2245
rtibia 3.65764e-014
rfoot -17.6632 -8.76946
rtoes 6.65749
lfemur 19.8375 -8.90364 -12.7581
ltibia -18.5277
lfoot -5.80016 20.6974
ltoes -7.77004
886
root -1.1175 18.111 5.9633 -0.601483 -3.47963 -5.01931
lowerback 2.04044 1.80225 2.80757
upperback -0.558686 2.48649 0.477437
thorax -1.61829 1.21604 -1.16471
lowerneck -11.8135 -2.5774 1.69335
upperneck 22.9277 -4.75572 3.16106
head 9.19538 -1.74051 0.256352
rclavicle 5.20567e-015 -1.39149e-014
rhumerus -50.487 -5.1282 -85.3529
rradius 45.1202
rwrist 11.0357
rhand -5.2234 -29.2837
rfingers 7.12502
rthumb 20.5788 301.787
lclavicle 5.20567e-015 -1.39149e-014
lhumerus -42.7663 4.53217 87.7631
lradius 40.0591
lwrist -9.51768
lhand -8.6392 -25.9838
lfingers 7.12502
lthumb 17.2937 3.26676
rfemur 10.6103 0.134357 21.2631
rtibia -2.70347e-014
rfoot -17.6275 -8.84111
rtoes 6.21929
lfemur 19.8376 -8.91917 -12.7325
ltibia -18.5332
lfoot -5.83143 20.743
ltoes -7.65042
887
root -1.116 18.1119 5.96273 -0.605734 -3.51397 -5.05453
lowerback 2.05045 1.80008 2.82674
upperback -0.540771 2.48434 0.493631
thorax -1.60552 1.21519 -1.15873
lowerneck -11.8545 -2.58029 1.63575
upperneck 22.9453 -4.76744 3.2338
head 9.21282 -1.74208 0.288741
rclavicle -7.11276e-015 9.14409e-015
rhumerus -50.4374 -5.04336 -85.3793
rradius 45.0998
rwrist 11.044
rhand -5.2429 -29.2948
rfingers 7.12502
rthumb 20.56 301.774
lclavicle -7.11276e-015 9.14409e-015
lhumerus -42.7521 4.43885 87.7708
lradius 40.1067
lwrist -9.39081
lhand -8.87451 -26.0837
lfingers 7.12502
lthumb 17.0672 3.18663
rfemur 10.6069 0.166394 21.3053
rtibia 1.74931e-014
rfoot -17.5728 -8.92385
rtoes 5.76338
lfemur 19.8633 -8.96772 -12.7131
ltibia -18.5507
lfoot -5.86822 20.8276
ltoes -7.75632
888
root -1.11327 18.1111 5.96254 -0.601902 -3.54132 -5.0833
lowerback 2.0421 1.80132 2.87903
upperback -0.530583 2.48687 0.494353
thorax -1.58813 1.21627 -1.1867
lowerneck -11.8273 -2.57369 1.69016
upperneck 22.8983 -4.74657 3.15139
head 9.18739 -1.73818 0.254523
rclavicle 1.17656e-014 2.50469e-014
rhumerus -50.3969 -4.97576 -85.3982
rradius 45.0677
rwrist 11.0697
rhand -5.2548 -29.363
rfingers 7.12502
rthumb 20.5486 301.705
lclavicle 1.17656e-014 2.50469e-014
lhumerus -42.7131 4.34948 87.7754
lradius 40.1124
lwrist -9.26327
lhand -9.03204 -26.2701
lfingers 7.12502
lthumb 16.9156 3.01324
rfemur 10.5987 0.195275 21.327
rtibia -2.22639e-014
rfoot -17.5657 -8.91645
rtoes 5.86498
lfemur 19.8767 -9.00985 -12.7057
ltibia -18.5619
lfoot -5.90299 20.8859
ltoes -7.81877
889
root -1.11023 18.1105 5.96196 -0.600235 -3.55758 -5.07859
lowerback 2.04417 1.80822 2.89976
upperback -0.515888 2.49622 0.485806
thorax -1.57257 1.22106 -1.20704
lowerneck -11.8024 -2.58192 1.7388
upperneck 22.8427 -4.74861 3.08438
head 9.16029 -1.74397 0.223958
rclavicle -1.60953e-014 -3.18055e-015
rhumerus -50.3505 -4.91811 -85.409
rradius 45.0456
rwrist 11.0729
rhand -5.27181 -29.3766
rfingers 7.12502
rthumb 20.5322 301.689
lclavicle -1.60953e-014 -3.18055e-015
lhumerus -42.651 4.20095 87.8022
lradius 40.1229
lwrist -9.09123
lhand -9.04409 -26.3556
lfingers 7.12502
lthumb 16.904 2.92876
rfemur 10.5957 0.215302 21.3078
rtibia 7.95139e-015
rfoot -17.5902 -8.87068
rtoes 6.14971
lfemur 19.8891 -9.04145 -12.731
ltibia -18.5795
lfoot -5.94916 20.9273
ltoes -7.41288
890
root -1.10697 18.1112 5.96046 -0.613173 -3.57698 -5.05058
lowerback 2.08323 1.82026 2.88764
upperback -0.489514 2.51249 0.466339
thorax -1.56636 1.22955 -1.22155
lowerneck -11.8609 -2.60389 1.71078
upperneck 22.8346 -4.79116 3.15124
head 9.17156 -1.75842 0.245705
rclavicle -3.78436e-014 -1.47101e-014
rhumerus -50.2959 -4.88707 -85.4267
rradius 45.0406
rwrist 11.0906
rhand -5.16055 -29.2782
rfingers 7.12502
rthumb 20.6391 301.799
lclavicle -3.78436e-014 -1.47101e-014
lhumerus -42.5624 4.07084 87.8067
lradius 40.1355
lwrist -9.0257
lhand -9.09205 -26.3084
lfingers 7.12502
lthumb 16.8578 2.97987
rfemur 10.5983 0.238605 21.2645
rtibia 6.36111e-014
rfoot -17.5926 -8.87119
rtoes 6.07797
lfemur 19.9134 -9.02393 -12.7736
ltibia -18.6036
lfoot -5.96715 20.9373
ltoes -7.13271
